<svg width="153" height="151" viewBox="0 0 153 151" fill="none" xmlns="http://www.w3.org/2000/svg">
<path d="M57.1408 52.5158C56.1408 62.8816 51.1119 67.5881 40.5613 67.5881" stroke="white" stroke-width="4"/>
<path d="M25.489 108.283C25.489 94.7183 36.0396 97.7327 57.1408 97.7328" stroke="white" stroke-width="4"/>
<path fill-rule="evenodd" clip-rule="evenodd" d="M99.3435 26.8929C103.506 26.8929 106.88 23.5188 106.88 19.3567C106.88 15.1946 103.506 11.8206 99.3435 11.8206C95.1814 11.8206 91.8074 15.1946 91.8074 19.3567C91.8074 23.5188 95.1814 26.8929 99.3435 26.8929ZM99.3436 23.8784C101.841 23.8784 103.865 21.854 103.865 19.3567C103.865 16.8595 101.841 14.835 99.3436 14.835C96.8463 14.835 94.8219 16.8595 94.8219 19.3567C94.8219 21.854 96.8463 23.8784 99.3436 23.8784Z" fill="white"/>
<path d="M93.3144 19.3567H84.271" stroke="white" stroke-width="4"/>
<path fill-rule="evenodd" clip-rule="evenodd" d="M126.02 30.9612C129.043 28.0997 129.173 23.3298 126.312 20.3074C123.45 17.2851 118.68 17.1546 115.658 20.0162C112.635 22.8777 112.505 27.6475 115.367 30.6699C118.228 33.6923 122.998 33.8227 126.02 30.9612ZM123.948 28.7722C125.761 27.0552 125.839 24.1933 124.122 22.3799C122.406 20.5665 119.544 20.4882 117.73 22.2051C115.917 23.922 115.838 26.784 117.555 28.5974C119.272 30.4108 122.134 30.4891 123.948 28.7722Z" fill="white"/>
<path d="M116.461 29.6337L109.894 35.8512L105.372 38.9507L85.7783 38.9507" stroke="white" stroke-width="4"/>
<path fill-rule="evenodd" clip-rule="evenodd" d="M100.846 78.1387C105.008 78.1387 108.382 74.7647 108.382 70.6026C108.382 66.4405 105.008 63.0664 100.846 63.0664C96.6841 63.0664 93.3101 66.4405 93.3101 70.6026C93.3101 74.7647 96.6841 78.1387 100.846 78.1387ZM100.846 75.1242C103.343 75.1242 105.368 73.0998 105.368 70.6026C105.368 68.1053 103.343 66.0809 100.846 66.0809C98.3489 66.0809 96.3245 68.1053 96.3245 70.6026C96.3245 73.0998 98.3489 75.1242 100.846 75.1242Z" fill="white"/>
<path d="M94.8217 70.3141H85.7783" stroke="white" stroke-width="4"/>
<path fill-rule="evenodd" clip-rule="evenodd" d="M115.918 99.2399C120.081 99.2399 123.455 95.8659 123.455 91.7038C123.455 87.5417 120.081 84.1676 115.918 84.1676C111.756 84.1676 108.382 87.5417 108.382 91.7038C108.382 95.8659 111.756 99.2399 115.918 99.2399ZM115.919 96.2255C118.416 96.2255 120.44 94.201 120.44 91.7038C120.44 89.2065 118.416 87.1821 115.919 87.1821C113.421 87.1821 111.397 89.2065 111.397 91.7038C111.397 94.201 113.421 96.2255 115.919 96.2255Z" fill="white"/>
<path d="M109.894 91.4153H100.851H84.271" stroke="white" stroke-width="4"/>
<path fill-rule="evenodd" clip-rule="evenodd" d="M106.18 142.445C109.123 145.388 113.895 145.388 116.838 142.445C119.781 139.502 119.781 134.73 116.838 131.787C113.895 128.844 109.123 128.844 106.18 131.787C103.237 134.73 103.237 139.502 106.18 142.445ZM108.311 140.313C110.077 142.079 112.94 142.079 114.706 140.313C116.472 138.547 116.472 135.684 114.706 133.918C112.94 132.152 110.077 132.152 108.311 133.918C106.546 135.684 106.546 138.547 108.311 140.313Z" fill="white"/>
<path d="M107.335 132.765L100.94 126.37L84.2711 126.37" stroke="white" stroke-width="4"/>
<path fill-rule="evenodd" clip-rule="evenodd" d="M124.267 130.387C127.21 133.33 131.981 133.33 134.924 130.387C137.867 127.444 137.867 122.672 134.924 119.729C131.981 116.786 127.21 116.786 124.267 119.729C121.324 122.672 121.324 127.444 124.267 130.387ZM126.398 128.255C128.164 130.021 131.027 130.021 132.793 128.255C134.559 126.489 134.559 123.626 132.793 121.86C131.027 120.095 128.164 120.095 126.398 121.86C124.632 123.626 124.632 126.489 126.398 128.255Z" fill="white"/>
<path fill-rule="evenodd" clip-rule="evenodd" d="M136.324 106.183C139.268 109.126 144.039 109.126 146.982 106.183C149.925 103.24 149.925 98.4684 146.982 95.5254C144.039 92.5823 139.268 92.5823 136.324 95.5254C133.381 98.4684 133.381 103.24 136.324 106.183ZM138.456 104.051C140.222 105.817 143.085 105.817 144.851 104.051C146.616 102.286 146.616 99.4227 144.851 97.6568C143.085 95.891 140.222 95.891 138.456 97.6568C136.69 99.4227 136.69 102.286 138.456 104.051Z" fill="white"/>
<path fill-rule="evenodd" clip-rule="evenodd" d="M127.281 51.9229C130.224 54.8659 134.996 54.8659 137.939 51.9229C140.882 48.9798 140.882 44.2082 137.939 41.2651C134.996 38.3221 130.224 38.3221 127.281 41.2651C124.338 44.2082 124.338 48.9798 127.281 51.9229ZM129.413 49.7912C131.178 51.557 134.041 51.557 135.807 49.7912C137.573 48.0254 137.573 45.1624 135.807 43.3966C134.041 41.6307 131.178 41.6307 129.413 43.3966C127.647 45.1624 127.647 48.0254 129.413 49.7912Z" fill="white"/>
<path fill-rule="evenodd" clip-rule="evenodd" d="M112.904 117.327C117.066 117.327 120.44 113.953 120.44 109.791C120.44 105.628 117.066 102.254 112.904 102.254C108.742 102.254 105.368 105.628 105.368 109.791C105.368 113.953 108.742 117.327 112.904 117.327ZM112.904 114.312C115.401 114.312 117.426 112.288 117.426 109.79C117.426 107.293 115.401 105.269 112.904 105.269C110.407 105.269 108.382 107.293 108.382 109.79C108.382 112.288 110.407 114.312 112.904 114.312Z" fill="white"/>
<path d="M106.879 109.502H97.8361H84.271" stroke="white" stroke-width="4"/>
<path fill-rule="evenodd" clip-rule="evenodd" d="M130.296 82.2683C133.239 85.2114 138.01 85.2114 140.953 82.2683C143.896 79.3253 143.896 74.5537 140.953 71.6106C138.01 68.6676 133.239 68.6676 130.296 71.6106C127.353 74.5537 127.353 79.3253 130.296 82.2683ZM132.427 80.1367C134.193 81.9026 137.056 81.9026 138.822 80.1367C140.588 78.3709 140.588 75.5079 138.822 73.7421C137.056 71.9763 134.193 71.9763 132.427 73.7421C130.661 75.5079 130.661 78.3709 132.427 80.1367Z" fill="white"/>
<path d="M131.568 72.4754L125.174 66.0808" stroke="white" stroke-width="4"/>
<path d="M61.6626 96.2255H73.7204" stroke="white" stroke-width="4"/>
<path d="M43.5759 106.776C57.141 106.776 57.141 124.863 43.5759 124.863" stroke="white" stroke-width="4"/>
<path d="M66.1843 55.5303C78.2422 55.5303 78.2422 70.0059 66.1843 70.0059" stroke="white" stroke-width="4"/>
<path d="M84.2711 17.8496C84.2711 -3.25163 54.1265 -1.74453 54.1265 13.3278" stroke="white" stroke-width="4"/>
<path d="M34.5325 31.4146C16.3136 25.0775 5.89503 51.0085 17.9529 54.0231" stroke="white" stroke-width="4"/>
<path d="M22.4735 88.6895C8.90953 96.2255 13.4311 109.791 17.9529 115.82" stroke="white" stroke-width="4"/>
<path d="M26.996 63.0663C45.083 63.0664 45.0824 40.4578 26.9949 40.4578" stroke="white" stroke-width="4"/>
<path d="M67.6914 31.4149C67.6914 5.79194 33.0252 5.79163 34.5324 32.9219" stroke="white" stroke-width="4"/>
<path d="M26.9961 51.0086C-9.17718 57.0375 1.37339 90.1965 14.9382 96.2255" stroke="white" stroke-width="4"/>
<path d="M43.5761 29.9072C45.5211 22.4025 47.713 20.1846 54.1267 20.8638M17.9532 69.0953C17.6066 79.1476 22.4747 82.6603 36.0399 81.1531" stroke="white" stroke-width="4"/>
<path d="M54.1257 28.4001C55.5234 36.9156 58.5491 39.4842 70.7053 38.9507H84.2703" stroke="white" stroke-width="4"/>
<path d="M76.7349 19.3567H84.271V52.5158H111.401L118.937 60.0519" stroke="white" stroke-width="4"/>
<path d="M84.2711 52.5158V81.1532M84.2711 81.1532H43.5759M84.2711 81.1532V115.819C77.7398 114.312 64.9786 114.011 66.1844 124.863" stroke="white" stroke-width="4"/>
<path d="M84.2711 115.819V135.413M84.2711 135.413H76.7349M84.2711 135.413C82.7638 144.457 63.1698 158.022 54.1265 136.921" stroke="white" stroke-width="4"/>
<path d="M26.9963 120.341C34.739 120.315 37.6439 119.056 40.5614 114.312" stroke="white" stroke-width="4"/>
<path d="M34.5328 118.834C31.5179 124.863 40.5614 138.428 49.6051 138.428C60.5239 138.428 63.1702 133.906 63.1702 132.399" stroke="white" stroke-width="4"/>
</svg>
